<svg preserveAspectRatio="none" width="100%" height="100%" overflow="visible" style="display: block;" viewBox="0 0 15.75 14" fill="none" xmlns="http://www.w3.org/2000/svg">
<g id="Img">
<path id="Vector" d="M0 0.65625C0 0.292578 0.292578 0 0.65625 0H1.90039C2.50195 0 3.03516 0.35 3.28398 0.875H14.5223C15.2414 0.875 15.7664 1.55859 15.5777 2.25312L14.4566 6.41758C14.2242 7.27617 13.4449 7.875 12.5562 7.875H4.66758L4.81523 8.6543C4.87539 8.96328 5.14609 9.1875 5.46055 9.1875H13.3438C13.7074 9.1875 14 9.48008 14 9.84375C14 10.2074 13.7074 10.5 13.3438 10.5H5.46055C4.51445 10.5 3.70234 9.82734 3.52734 8.90039L2.11641 1.49023C2.09727 1.38633 2.00703 1.3125 1.90039 1.3125H0.65625C0.292578 1.3125 0 1.01992 0 0.65625V0.65625M3.5 12.6875C3.5 11.9631 4.08811 11.375 4.8125 11.375C5.53689 11.375 6.125 11.9631 6.125 12.6875C6.125 13.4119 5.53689 14 4.8125 14C4.08811 14 3.5 13.4119 3.5 12.6875V12.6875M12.6875 11.375C13.4119 11.375 14 11.9631 14 12.6875C14 13.4119 13.4119 14 12.6875 14C11.9631 14 11.375 13.4119 11.375 12.6875C11.375 11.9631 11.9631 11.375 12.6875 11.375V11.375" fill="#F5F1E6"/>
</g>
</svg>
