<svg preserveAspectRatio="none" width="100%" height="100%" overflow="visible" style="display: block;" viewBox="0 0 14 16" fill="none" xmlns="http://www.w3.org/2000/svg">
<g id="Img">
<path id="Vector" d="M9.5 4C9.5 2.62021 8.37979 1.5 7 1.5C5.62021 1.5 4.5 2.62021 4.5 4C4.5 5.37979 5.62021 6.5 7 6.5C8.37979 6.5 9.5 5.37979 9.5 4V4M3 4C3 1.79234 4.79234 0 7 0C9.20766 0 11 1.79234 11 4C11 6.20766 9.20766 8 7 8C4.79234 8 3 6.20766 3 4V4M1.54062 14.5H12.4594C12.1813 12.5219 10.4813 11 8.42813 11H5.57188C3.51875 11 1.81875 12.5219 1.54062 14.5V14.5M0 15.0719C0 11.9937 2.49375 9.5 5.57188 9.5H8.42813C11.5063 9.5 14 11.9937 14 15.0719C14 15.5844 13.5844 16 13.0719 16H0.928125C0.415625 16 0 15.5844 0 15.0719V15.0719" fill="#F5F1E6"/>
</g>
</svg>
