<svg preserveAspectRatio="none" width="100%" height="100%" overflow="visible" style="display: block;" viewBox="0 0 12 12" fill="none" xmlns="http://www.w3.org/2000/svg">
<g id="Img">
<path id="Vector" d="M5.29219 10.9734L5.23359 10.9195L1.12734 7.10625C0.407813 6.43828 0 5.50078 0 4.51875V4.44141C0 2.79141 1.17188 1.37578 2.79375 1.06641C3.71719 0.888281 4.66172 1.10156 5.41406 1.63125C5.625 1.78125 5.82188 1.95469 6 2.15391C6.09844 2.04141 6.20391 1.93828 6.31641 1.84219C6.40313 1.76719 6.49219 1.69688 6.58594 1.63125V1.63125C7.33828 1.10156 8.28281 0.888281 9.20625 1.06406C10.8281 1.37344 12 2.79141 12 4.44141V4.51875C12 5.50078 11.5922 6.43828 10.8727 7.10625L6.76641 10.9195L6.70781 10.9734C6.51562 11.1516 6.2625 11.2523 6 11.2523C5.7375 11.2523 5.48438 11.1539 5.29219 10.9734V10.9734M5.60391 3.39844C5.59453 3.39141 5.5875 3.38203 5.58047 3.37266L5.16328 2.90391L5.16094 2.90156V2.90156C4.61953 2.29453 3.80156 2.01797 3.00469 2.17031C1.9125 2.37891 1.125 3.33047 1.125 4.44141V4.51875C1.125 5.18672 1.40391 5.82656 1.89375 6.28125L6 10.0945L10.1062 6.28125C10.5961 5.82656 10.875 5.18672 10.875 4.51875V4.44141C10.875 3.33281 10.0875 2.37891 8.99766 2.17031C8.20078 2.01797 7.38047 2.29687 6.84141 2.90156C6.84141 2.90156 6.84141 2.90156 6.83906 2.90391Cnan nan 6.83906 2.90391 6.83672 2.90625L6.41953 3.375C6.4125 3.38438 6.40313 3.39141 6.39609 3.40078C6.29063 3.50625 6.14766 3.56484 6 3.56484Cnan nan 5.70937 3.50625 5.60391 3.40078V3.39844" fill="var(--fill-0, #F5F1E6)"/>
</g>
</svg>
