<svg preserveAspectRatio="none" width="100%" height="100%" overflow="visible" style="display: block;" viewBox="0 0 15.75 18" fill="none" xmlns="http://www.w3.org/2000/svg">
<g id="Img">
<path id="Vector" d="M10.6875 4.5C10.6875 2.94774 9.42726 1.6875 7.875 1.6875C6.32274 1.6875 5.0625 2.94774 5.0625 4.5C5.0625 6.05226 6.32274 7.3125 7.875 7.3125C9.42726 7.3125 10.6875 6.05226 10.6875 4.5V4.5M3.375 4.5C3.375 2.01638 5.39138 0 7.875 0C10.3586 0 12.375 2.01638 12.375 4.5C12.375 6.98362 10.3586 9 7.875 9C5.39138 9 3.375 6.98362 3.375 4.5V4.5M1.7332 16.3125H14.0168C13.7039 14.0871 11.7914 12.375 9.48164 12.375H6.26836C3.95859 12.375 2.04609 14.0871 1.7332 16.3125V16.3125M0 16.9559C0 13.493 2.80547 10.6875 6.26836 10.6875H9.48164C12.9445 10.6875 15.75 13.493 15.75 16.9559C15.75 17.5324 15.2824 18 14.7059 18H1.04414C0.467578 18 0 17.5324 0 16.9559V16.9559" fill="var(--fill-0, #F5F1E6)"/>
</g>
</svg>
