<svg preserveAspectRatio="none" width="100%" height="100%" overflow="visible" style="display: block;" viewBox="0 0 15.75 18" fill="none" xmlns="http://www.w3.org/2000/svg">
<g id="Img">
<path id="Vector" d="M5.625 3.9375C5.625 2.69648 6.63398 1.6875 7.875 1.6875C9.11602 1.6875 10.125 2.69648 10.125 3.9375V5.625H5.625V3.9375V3.9375M3.9375 5.625H1.6875C0.755859 5.625 0 6.38086 0 7.3125V14.625C0 16.4883 1.51172 18 3.375 18H12.375C14.2383 18 15.75 16.4883 15.75 14.625V7.3125C15.75 6.38086 14.9941 5.625 14.0625 5.625H11.8125V3.9375C11.8125 1.76133 10.0512 0 7.875 0C5.69883 0 3.9375 1.76133 3.9375 3.9375V5.625V5.625M4.78125 7.3125C5.24693 7.3125 5.625 7.69057 5.625 8.15625C5.625 8.62193 5.24693 9 4.78125 9C4.31557 9 3.9375 8.62193 3.9375 8.15625C3.9375 7.69057 4.31557 7.3125 4.78125 7.3125V7.3125M10.125 8.15625C10.125 7.69057 10.5031 7.3125 10.9688 7.3125C11.4344 7.3125 11.8125 7.69057 11.8125 8.15625C11.8125 8.62193 11.4344 9 10.9688 9C10.5031 9 10.125 8.62193 10.125 8.15625V8.15625" fill="var(--fill-0, #F5F1E6)"/>
</g>
</svg>
