<svg preserveAspectRatio="none" width="100%" height="100%" overflow="visible" style="display: block;" viewBox="0 0 30 30" fill="none" xmlns="http://www.w3.org/2000/svg">
<g id="Img">
<path id="Vector" d="M26.25 4.6875C26.7656 4.6875 27.1875 5.10938 27.1875 5.625V24.3633L26.8945 23.9824L18.9258 13.6699C18.6621 13.3242 18.2461 13.125 17.8125 13.125C17.3789 13.125 16.9688 13.3242 16.6992 13.6699L11.8359 19.9629L10.0488 17.4609C9.78516 17.0918 9.36328 16.875 8.90625 16.875C8.44922 16.875 8.02734 17.0918 7.76367 17.4668L3.07617 24.0293L2.8125 24.3926V24.375V5.625C2.8125 5.10938 3.23438 4.6875 3.75 4.6875H26.25V4.6875M3.75 1.875C1.68164 1.875 0 3.55664 0 5.625V24.375C0 26.4434 1.68164 28.125 3.75 28.125H26.25C28.3184 28.125 30 26.4434 30 24.375V5.625C30 3.55664 28.3184 1.875 26.25 1.875H3.75V1.875M8.4375 13.125C9.98976 13.125 11.25 11.8648 11.25 10.3125C11.25 8.76024 9.98976 7.5 8.4375 7.5C6.88524 7.5 5.625 8.76024 5.625 10.3125C5.625 11.8648 6.88524 13.125 8.4375 13.125V13.125" fill="#F5F1E6"/>
</g>
</svg>
